# xmcd
#
# Track frame offsets: 
#        150
#        15883
#        33323
#        49501
#        70615
#        86835
#        108809
#        125532
#        139960
#        164614
#        179560
#        195050
#        210891
#
# Disc length: 3103 seconds
#
# Revision: 2
# Processed by: cddbd v1.5.2PL0 Copyright (c) Steve Scherf et al.
# Submitted via: ExactAudioCopyFreeDBPlugin 1.0
#
DISCID=a00c1d0d
DTITLE=Levon Helm - Dirt Farmer
DYEAR=2007
DGENRE=Country
TTITLE0=False Hearted Lover Blues
TTITLE1=Poor Old Dirt Farmer
TTITLE2=The Mountain
TTITLE3=Little Birds
TTITLE4=The Girl I Left Behind
TTITLE5=Calvary
TTITLE6=Anna Lee
TTITLE7=Got Me a Woman
TTITLE8=A Train Robbery
TTITLE9=Single Girl, Married Girl
TTITLE10=The Blind Child
TTITLE11=Feelin' Good
TTITLE12=Wide River to Cross
EXTD=YEAR: 2007
EXTT0=
EXTT1=
EXTT2=
EXTT3=
EXTT4=
EXTT5=
EXTT6=
EXTT7=
EXTT8=
EXTT9=
EXTT10=
EXTT11=
EXTT12=
PLAYORDER=
